<?xml version="1.0" standalone="no"?>
<!DOCTYPE svg PUBLIC "-//W3C//DTD SVG 20010904//EN"
 "http://www.w3.org/TR/2001/REC-SVG-20010904/DTD/svg10.dtd">
<svg version="1.0" xmlns="http://www.w3.org/2000/svg"
 width="325.000000pt" height="325.000000pt" viewBox="0 0 325.000000 325.000000"
 preserveAspectRatio="xMidYMid meet">
<metadata>
Created by potrace 1.11, written by Peter Selinger 2001-2013
</metadata>
<g transform="translate(0.000000,325.000000) scale(0.100000,-0.100000)"
fill="#000000" stroke="none">
<path d="M195 2908 l-170 -173 930 -5 930 -5 68 -32 c170 -81 270 -266 238
-441 -15 -81 -58 -166 -108 -214 -21 -20 -90 -80 -155 -135 -161 -136 -556
-487 -557 -494 -1 -4 298 -268 663 -588 l665 -581 258 2 258 3 -662 580 c-364
319 -662 582 -662 585 0 3 106 97 236 210 278 242 325 302 383 485 30 95 38
264 17 362 -62 287 -263 502 -552 589 -55 17 -126 18 -835 21 l-775 4 -170
-173z"/>
<path d="M757 1863 c-422 -371 -516 -458 -505 -468 7 -7 300 -263 650 -569
l637 -556 216 2 217 3 -628 550 c-345 302 -636 557 -647 566 -20 15 -3 31 496
468 285 249 517 454 517 457 0 2 -98 4 -217 3 l-218 0 -518 -456z"/>
</g>
</svg>
